<?xml version="1.0" encoding="utf-8"?>
<!-- Generator: Adobe Illustrator 22.0.0, SVG Export Plug-In . SVG Version: 6.00 Build 0)  -->
<svg version="1.0" id="Layer_342" xmlns="http://www.w3.org/2000/svg" xmlns:xlink="http://www.w3.org/1999/xlink" x="0px" y="0px"
	 viewBox="0 0 48 48" style="enable-background:new 0 0 48 48;" xml:space="preserve">
<style type="text/css">
	.st0{fill-rule:evenodd;clip-rule:evenodd;}
</style>
<g id="Icon_Magnifying_Glass_3_">
	<g>
		<path class="st0" d="M32.1,29.2c2.5-3.1,3.9-7,3.9-11.2c0-9.9-8.1-18-18-18C8.1,0,0,8.1,0,18s8.1,18,18,18c4.2,0,8.1-1.5,11.2-3.9
			L45.1,48l2.8-2.8L32.1,29.2z M18,32c-7.7,0-14-6.3-14-14S10.3,4,18,4c7.7,0,14,6.3,14,14S25.7,32,18,32z"/>
	</g>
</g>
</svg>
