<?xml version="1.0" encoding="utf-8"?>
<!-- Generator: Adobe Illustrator 22.0.0, SVG Export Plug-In . SVG Version: 6.00 Build 0)  -->
<svg version="1.1" id="_x2014_ÎÓÈ_1" xmlns="http://www.w3.org/2000/svg" xmlns:xlink="http://www.w3.org/1999/xlink" x="0px"
	 y="0px" viewBox="0 0 64.2 60.2" style="enable-background:new 0 0 64.2 60.2;" xml:space="preserve">
<style type="text/css">
	.st0{fill:none;stroke:#000000;stroke-width:2;stroke-miterlimit:10;}
</style>
<g>
	<path d="M29.5,38.3V19.1c0-1.4,1.2-2.6,2.6-2.6c1.4,0,2.6,1.2,2.6,2.6v19.2c0,1.5-1.1,2.6-2.6,2.6C30.7,40.9,29.5,39.8,29.5,38.3z
		 M32.1,51.8c-1.4,0-2.6-1.1-2.6-2.6v-1c0-1.4,1.2-2.6,2.6-2.6c1.4,0,2.6,1.2,2.6,2.6v1C34.7,50.7,33.5,51.8,32.1,51.8z"/>
</g>
<path class="st0" d="M32.1,1C22.9,1-2.5,52.5,1.4,56.4s57.9,3.6,61.4,0C66.4,52.9,41.3,1,32.1,1z"/>
</svg>
