<?xml version="1.0" encoding="utf-8"?>
<!-- Generator: Adobe Illustrator 22.0.0, SVG Export Plug-In . SVG Version: 6.00 Build 0)  -->
<svg version="1.1" id="Layer_342" xmlns="http://www.w3.org/2000/svg" xmlns:xlink="http://www.w3.org/1999/xlink" x="0px" y="0px"
	 viewBox="0 0 48 32" style="enable-background:new 0 0 48 32;" xml:space="preserve">
<style type="text/css">
	.st0{fill-rule:evenodd;clip-rule:evenodd;}
</style>
<g id="Icon_List_Alt_3_">
	<g>
		<path class="st0" d="M46,14H2c-1.1,0-2,0.9-2,2s0.9,2,2,2h44c1.1,0,2-0.9,2-2S47.1,14,46,14z M46,28H8c-1.1,0-2,0.9-2,2
			c0,1.1,0.9,2,2,2h38c1.1,0,2-0.9,2-2C48,28.9,47.1,28,46,28z M8,4h38c1.1,0,2-0.9,2-2s-0.9-2-2-2H8C6.9,0,6,0.9,6,2S6.9,4,8,4z"/>
	</g>
</g>
</svg>
