<svg id="Calque_1" data-name="Calque 1" xmlns="http://www.w3.org/2000/svg" xmlns:xlink="http://www.w3.org/1999/xlink" viewBox="0 0 130.32 34.64"><defs><style>.cls-1{fill:#58595b;}.cls-2{fill:url(#Dégradé_sans_nom);}</style><radialGradient id="Dégradé_sans_nom" cx="15.1" cy="30.46" fy="22.315035413007514" r="14.3" gradientTransform="matrix(1, 0, 0, -1, 0, 50)" gradientUnits="userSpaceOnUse"><stop offset="0" stop-color="#f9ae40"/><stop offset="0.35" stop-color="#f6a83a"/><stop offset="0.81" stop-color="#ee982b"/><stop offset="1" stop-color="#ea8f22"/></radialGradient></defs><title>logo-sobi</title><g id="Lager_2" data-name="Lager 2"><g id="Layer_1" data-name="Layer 1"><path class="cls-1" d="M47.08,34.12a11.73,11.73,0,0,1-10.36-5.24.16.16,0,0,1,0-.24L40,26.42a.15.15,0,0,1,.13,0,.15.15,0,0,1,.11.08,7.86,7.86,0,0,0,6.84,3.89c3,0,6.07-1.32,6.07-4.25,0-2.4-1.88-3.34-4.92-4.09L44.6,21.2c-4.54-1.2-7-3.63-7-7.2,0-5.65,5-8.18,10-8.18,4.27,0,7.47,1.73,9,4.86a.17.17,0,0,1-.06.22l-3.35,2.21a.17.17,0,0,1-.24,0v0A6,6,0,0,0,47.42,9.6c-2.66,0-5.33,1.17-5.33,3.8,0,2.42,1.71,3.26,5.09,4l3.8.91c4,.93,6.6,3.84,6.6,7.43,0,6.16-5.66,8.35-10.5,8.35Z"/><path class="cls-1" d="M74.72,34.12c-8.26,0-14.25-5.94-14.25-14.14s6-14.14,14.25-14.14S89,11.79,89,20,83,34.12,74.72,34.12Zm0-24.31C69.06,9.81,65.11,14,65.11,20s4,10.17,9.62,10.17S84.39,26,84.39,20s-4-10.17-9.67-10.17Z"/><path class="cls-1" d="M107.64,34.12c-3.12,0-7.63-1.29-10.27-4.9v4a.18.18,0,0,1-.17.17H93.28a.18.18,0,0,1-.17-.17V.17A.18.18,0,0,1,93.28,0H97.2a.18.18,0,0,1,.17.17V10.75c2.64-3.61,7.15-4.9,10.27-4.9C115.93,5.85,122,11.79,122,20s-6,14.14-14.31,14.14ZM108,9.84a10,10,0,0,0-10.15,9.85V20a10,10,0,0,0,9.87,10.13H108c5.68,0,9.64-4.17,9.64-10.14s-4-10.14-9.64-10.14Z"/><path class="cls-1" d="M130.15,33.44h-3.92a.18.18,0,0,1-.17-.17V6.7a.18.18,0,0,1,.17-.17h3.92a.18.18,0,0,1,.17.17V33.27A.18.18,0,0,1,130.15,33.44Z"/><path class="cls-2" d="M15.1,4.44a15.1,15.1,0,1,0,15.1,15.1A15.1,15.1,0,0,0,15.1,4.44ZM9.91,30a3,3,0,1,1,3-3A3,3,0,0,1,9.91,30Zm0-7.5a3,3,0,1,1,3-3,3,3,0,0,1-3,3Zm0-7.46a3,3,0,1,1,3-3,3,3,0,0,1-3,3Z"/></g></g></svg>